<svg width="665" height="361" viewBox="0 0 665 361" fill="none" xmlns="http://www.w3.org/2000/svg">
<circle cx="326.5" cy="166.5" r="151" fill="black" stroke="black"/>
<path d="M34 245C256.071 -61.4938 385.127 -80.3653 626 245" stroke="black" stroke-width="16"/>
<path d="M9.66549 338.247L14.897 328.175L19.313 328.182L11.7075 342.122L11.6938 351.018L7.59785 351.012L7.61129 342.276L0.0490051 328.152L4.497 328.159L9.66549 338.247ZM35.2318 351.054L22.2398 351.034L22.275 328.186L35.267 328.206L35.2617 331.63L26.3657 331.617L26.3567 337.441L34.6767 337.453L34.6715 340.877L26.3515 340.865L26.3411 347.585L35.2371 347.598L35.2318 351.054ZM53.3731 344.842C53.3711 346.186 53.0386 347.348 52.3758 348.329C51.7129 349.309 50.7518 350.065 49.4923 350.596C48.2541 351.128 46.7711 351.392 45.0431 351.389C44.2111 351.388 43.4111 351.333 42.6433 351.226C41.8968 351.139 41.1823 350.999 40.5 350.806C39.8389 350.613 39.2206 350.378 38.645 350.099L38.6509 346.259C39.6103 346.688 40.6657 347.084 41.8171 347.448C42.9686 347.791 44.1417 347.964 45.3363 347.966C46.2537 347.967 47.0005 347.851 47.5769 347.617C48.1746 347.362 48.6124 347.021 48.8904 346.595C49.1685 346.148 49.3079 345.636 49.3088 345.06C49.3098 344.42 49.1293 343.876 48.7673 343.427C48.4053 342.978 47.8726 342.562 47.1692 342.177C46.4658 341.791 45.5918 341.385 44.5471 340.957C43.8436 340.657 43.1507 340.325 42.4686 339.961C41.8079 339.576 41.2113 339.117 40.6788 338.583C40.1462 338.048 39.7205 337.418 39.4017 336.693C39.0828 335.967 38.9241 335.113 38.9256 334.132C38.9276 332.831 39.2387 331.711 39.8588 330.773C40.5002 329.836 41.3866 329.122 42.5181 328.633C43.6708 328.144 45.0045 327.901 46.5192 327.904C47.7352 327.905 48.8763 328.035 49.9426 328.293C51.0089 328.55 52.0643 328.915 53.1089 329.386L51.7919 332.68C50.8538 332.273 49.9476 331.951 49.0733 331.715C48.199 331.479 47.3032 331.361 46.3859 331.359C45.6605 331.358 45.0417 331.475 44.5293 331.708C44.017 331.921 43.6325 332.23 43.3759 332.635C43.1193 333.04 42.9906 333.509 42.9897 334.042C42.9888 334.661 43.148 335.184 43.4673 335.611C43.7867 336.038 44.2767 336.444 44.9375 336.829C45.6196 337.193 46.4936 337.61 47.5595 338.081C48.796 338.616 49.8405 339.173 50.693 339.75C51.5454 340.327 52.2057 341.022 52.6738 341.833C53.1419 342.644 53.375 343.647 53.3731 344.842ZM56.7204 349.039C56.7218 348.143 56.9575 347.514 57.4273 347.152C57.8973 346.769 58.4736 346.578 59.1562 346.579C59.8389 346.58 60.4146 346.762 60.8834 347.126C61.3735 347.489 61.6178 348.129 61.6164 349.047C61.6151 349.921 61.3688 350.55 60.8775 350.934C60.4076 351.317 59.8313 351.508 59.1486 351.507C58.466 351.506 57.8903 351.313 57.4215 350.928C56.9528 350.544 56.7191 349.914 56.7204 349.039ZM80.7268 351.124L78.6561 345.073L70.0481 345.06L67.9908 351.105L63.6388 351.098L72.0581 328.167L76.7301 328.174L85.0788 351.131L80.7268 351.124ZM75.6305 335.66C75.5457 335.362 75.4183 334.956 75.2484 334.444C75.0785 333.931 74.9087 333.409 74.7388 332.875C74.5903 332.32 74.4737 331.861 74.3889 331.498C74.2816 331.925 74.1422 332.415 73.9707 332.97C73.8205 333.524 73.6704 334.047 73.5203 334.537C73.3915 335.028 73.2843 335.401 73.1985 335.657L71.1735 341.541L77.6055 341.551L75.6305 335.66ZM106.22 351.163L99.9768 332.434L99.8488 332.434C99.8695 332.86 99.9005 333.468 99.942 334.258C99.9835 335.026 100.014 335.869 100.034 336.786C100.075 337.682 100.095 338.525 100.094 339.314L100.076 351.154L96.396 351.148L96.4311 328.3L102.127 328.309L108.116 346.27L108.244 346.271L114.543 328.328L120.239 328.337L120.204 351.185L116.3 351.179L116.318 339.147C116.32 338.422 116.331 337.632 116.354 336.779C116.398 335.904 116.431 335.083 116.454 334.315C116.498 333.526 116.531 332.918 116.553 332.491L116.425 332.491L109.868 351.169L106.22 351.163ZM133.859 351.206L124.259 351.191L124.262 348.855L127.016 347.835L127.041 331.739L124.29 330.679L124.294 328.343L133.894 328.358L133.89 330.694L131.137 331.746L131.112 347.842L133.862 348.87L133.859 351.206ZM151.248 344.993C151.246 346.337 150.914 347.499 150.251 348.479C149.588 349.459 148.627 350.215 147.367 350.747C146.129 351.278 144.646 351.543 142.918 351.54C142.086 351.539 141.286 351.484 140.518 351.376C139.772 351.29 139.057 351.15 138.375 350.957C137.714 350.764 137.095 350.528 136.52 350.25L136.526 346.41C137.485 346.838 138.541 347.234 139.692 347.599C140.843 347.942 142.017 348.114 143.211 348.116C144.129 348.118 144.875 348.002 145.452 347.768C146.049 347.513 146.487 347.172 146.765 346.746C147.043 346.298 147.183 345.786 147.184 345.21C147.185 344.57 147.004 344.026 146.642 343.578C146.28 343.129 145.748 342.712 145.044 342.327C144.341 341.942 143.467 341.535 142.422 341.107C141.718 340.807 141.026 340.476 140.344 340.112C139.683 339.727 139.086 339.267 138.554 338.733C138.021 338.199 137.595 337.569 137.277 336.843C136.958 336.117 136.799 335.264 136.8 334.282C136.802 332.981 137.114 331.862 137.734 330.924C138.375 329.986 139.262 329.273 140.393 328.784C141.546 328.295 142.879 328.052 144.394 328.054C145.61 328.056 146.751 328.186 147.817 328.443C148.884 328.701 149.939 329.065 150.984 329.536L149.667 332.83C148.729 332.423 147.823 332.102 146.948 331.866C146.074 331.63 145.178 331.511 144.261 331.51C143.535 331.509 142.917 331.625 142.404 331.859C141.892 332.072 141.507 332.38 141.251 332.785C140.994 333.19 140.865 333.659 140.865 334.193C140.864 334.811 141.023 335.334 141.342 335.761C141.662 336.189 142.152 336.595 142.812 336.98C143.494 337.343 144.368 337.761 145.434 338.232C146.671 338.767 147.715 339.323 148.568 339.901C149.42 340.478 150.081 341.172 150.549 341.984C151.017 342.795 151.25 343.798 151.248 344.993ZM168.842 345.02C168.84 346.364 168.507 347.526 167.844 348.506C167.182 349.487 166.22 350.242 164.961 350.774C163.723 351.305 162.24 351.57 160.512 351.567C159.68 351.566 158.88 351.511 158.112 351.403C157.365 351.317 156.651 351.177 155.969 350.984C155.308 350.791 154.689 350.555 154.114 350.277L154.12 346.437C155.079 346.865 156.134 347.262 157.286 347.626C158.437 347.969 159.61 348.142 160.805 348.143C161.722 348.145 162.469 348.029 163.045 347.795C163.643 347.54 164.081 347.199 164.359 346.773C164.637 346.325 164.777 345.813 164.777 345.237C164.778 344.597 164.598 344.053 164.236 343.605C163.874 343.156 163.341 342.739 162.638 342.354C161.934 341.969 161.06 341.562 160.016 341.134C159.312 340.834 158.619 340.503 157.937 340.139C157.277 339.754 156.68 339.294 156.147 338.76C155.615 338.226 155.189 337.596 154.87 336.87C154.551 336.144 154.393 335.291 154.394 334.31C154.396 333.008 154.707 331.889 155.327 330.951C155.969 330.013 156.855 329.3 157.987 328.811C159.139 328.322 160.473 328.079 161.988 328.081C163.204 328.083 164.345 328.213 165.411 328.47C166.477 328.728 167.533 329.092 168.578 329.563L167.26 332.857C166.322 332.451 165.416 332.129 164.542 331.893C163.668 331.657 162.772 331.538 161.854 331.537C161.129 331.536 160.51 331.652 159.998 331.886C159.486 332.099 159.101 332.407 158.845 332.812C158.588 333.217 158.459 333.686 158.458 334.22C158.457 334.838 158.617 335.361 158.936 335.788C159.255 336.216 159.745 336.622 160.406 337.007C161.088 337.37 161.962 337.788 163.028 338.259C164.265 338.794 165.309 339.35 166.162 339.928C167.014 340.505 167.674 341.199 168.142 342.011C168.61 342.822 168.844 343.825 168.842 345.02ZM193.579 339.842C193.577 341.612 193.35 343.223 192.9 344.673C192.471 346.101 191.808 347.338 190.91 348.382C190.034 349.426 188.913 350.224 187.547 350.777C186.202 351.329 184.623 351.604 182.809 351.601C180.975 351.598 179.375 351.319 178.011 350.762C176.668 350.184 175.559 349.382 174.686 348.357C173.813 347.31 173.154 346.061 172.708 344.61C172.284 343.158 172.073 341.547 172.076 339.777C172.079 337.409 172.466 335.351 173.237 333.602C174.029 331.854 175.215 330.502 176.795 329.544C178.397 328.565 180.424 328.078 182.878 328.081C185.288 328.085 187.282 328.579 188.859 329.563C190.436 330.525 191.618 331.892 192.405 333.664C193.192 335.415 193.583 337.474 193.579 339.842ZM176.396 339.815C176.393 341.543 176.615 343.026 177.061 344.264C177.528 345.502 178.231 346.453 179.168 347.116C180.127 347.778 181.343 348.111 182.815 348.113C184.329 348.116 185.557 347.787 186.496 347.127C187.436 346.467 188.131 345.519 188.581 344.282C189.031 343.045 189.257 341.563 189.26 339.835C189.263 337.254 188.765 335.226 187.765 333.753C186.764 332.279 185.134 331.541 182.872 331.537C181.379 331.535 180.152 331.864 179.191 332.524C178.251 333.184 177.546 334.132 177.074 335.368C176.624 336.605 176.398 338.087 176.396 339.815ZM217.851 351.335L212.763 351.327L201.975 333.391L201.847 333.391C201.867 333.86 201.888 334.361 201.908 334.895C201.95 335.407 201.981 335.94 202.002 336.495C202.022 337.028 202.043 337.572 202.063 338.127C202.084 338.682 202.104 339.236 202.125 339.791L202.107 351.311L198.427 351.305L198.462 328.457L203.518 328.465L214.275 346.274L214.371 346.274C214.35 345.847 214.33 345.388 214.309 344.898C214.288 344.386 214.268 343.863 214.247 343.33C214.248 342.796 214.238 342.252 214.218 341.698C214.197 341.143 214.177 340.609 214.156 340.097L214.174 328.481L217.886 328.487L217.851 351.335ZM235.789 334.019L235.763 351.363L231.731 351.357L231.757 334.013L235.789 334.019ZM233.784 327.328C234.381 327.329 234.903 327.489 235.351 327.81C235.798 328.109 236.022 328.654 236.02 329.443C236.019 330.211 235.794 330.765 235.346 331.106C234.897 331.425 234.374 331.585 233.777 331.584C233.158 331.583 232.625 331.422 232.178 331.101C231.752 330.759 231.539 330.204 231.54 329.436C231.542 328.647 231.756 328.103 232.183 327.805C232.631 327.486 233.165 327.327 233.784 327.328ZM252.734 346.365C252.732 347.517 252.453 348.498 251.897 349.308C251.341 350.096 250.519 350.692 249.431 351.096C248.363 351.499 247.051 351.7 245.494 351.698C244.278 351.696 243.232 351.609 242.358 351.437C241.484 351.265 240.652 350.997 239.863 350.633L239.868 347.209C240.721 347.616 241.67 347.958 242.715 348.237C243.76 348.516 244.73 348.657 245.626 348.658C246.736 348.66 247.536 348.49 248.027 348.15C248.518 347.809 248.764 347.351 248.765 346.775C248.766 346.433 248.67 346.124 248.479 345.846C248.287 345.569 247.914 345.28 247.36 344.981C246.806 344.66 245.964 344.264 244.834 343.793C243.725 343.343 242.798 342.894 242.052 342.444C241.327 341.995 240.773 341.461 240.39 340.842C240.029 340.201 239.848 339.401 239.85 338.441C239.852 336.884 240.473 335.711 241.711 334.924C242.95 334.115 244.583 333.712 246.609 333.715C247.676 333.717 248.678 333.825 249.617 334.04C250.576 334.233 251.536 334.555 252.495 335.004L251.211 337.978C250.678 337.743 250.145 337.539 249.612 337.368C249.1 337.175 248.577 337.025 248.044 336.918C247.532 336.81 247.01 336.756 246.477 336.755C245.602 336.754 244.94 336.891 244.492 337.168C244.044 337.423 243.819 337.786 243.818 338.255C243.818 338.618 243.924 338.938 244.137 339.216C244.371 339.472 244.765 339.739 245.32 340.017C245.895 340.274 246.705 340.617 247.75 341.045C248.795 341.452 249.679 341.88 250.404 342.329C251.15 342.757 251.725 343.291 252.13 343.932C252.534 344.573 252.735 345.383 252.734 346.365ZM279.414 351.43L277.343 345.379L268.735 345.365L266.678 351.41L262.326 351.404L270.745 328.473L275.417 328.48L283.766 351.437L279.414 351.43ZM274.318 335.966C274.233 335.667 274.106 335.262 273.936 334.749C273.766 334.237 273.596 333.714 273.426 333.181C273.278 332.626 273.161 332.167 273.076 331.804C272.969 332.231 272.829 332.721 272.658 333.275C272.508 333.83 272.358 334.352 272.208 334.843C272.079 335.333 271.972 335.706 271.886 335.962L269.861 341.847L276.293 341.857L274.318 335.966ZM300.06 345.222C300.058 346.566 299.726 347.728 299.063 348.708C298.4 349.688 297.439 350.444 296.179 350.976C294.941 351.507 293.458 351.771 291.73 351.769C290.898 351.768 290.098 351.713 289.331 351.605C288.584 351.519 287.87 351.379 287.187 351.186C286.526 350.993 285.908 350.757 285.332 350.479L285.338 346.639C286.297 347.067 287.353 347.463 288.504 347.828C289.656 348.171 290.829 348.343 292.024 348.345C292.941 348.347 293.688 348.23 294.264 347.997C294.862 347.742 295.3 347.401 295.578 346.975C295.856 346.527 295.995 346.015 295.996 345.439C295.997 344.799 295.816 344.255 295.455 343.807C295.093 343.358 294.56 342.941 293.856 342.556C293.153 342.171 292.279 341.764 291.234 341.336C290.531 341.036 289.838 340.705 289.156 340.341C288.495 339.956 287.898 339.496 287.366 338.962C286.833 338.428 286.408 337.798 286.089 337.072C285.77 336.346 285.611 335.493 285.613 334.511C285.615 333.21 285.926 332.091 286.546 331.153C287.187 330.215 288.074 329.502 289.205 329.013C290.358 328.524 291.692 328.281 293.206 328.283C294.422 328.285 295.564 328.415 296.63 328.672C297.696 328.93 298.752 329.294 299.796 329.765L298.479 333.059C297.541 332.652 296.635 332.331 295.761 332.095C294.886 331.859 293.99 331.74 293.073 331.739C292.348 331.738 291.729 331.854 291.217 332.088C290.704 332.301 290.32 332.609 290.063 333.014C289.806 333.419 289.678 333.888 289.677 334.422C289.676 335.04 289.835 335.563 290.155 335.99C290.474 336.418 290.964 336.824 291.625 337.209C292.307 337.572 293.181 337.99 294.247 338.461C295.483 338.996 296.528 339.552 297.38 340.129C298.233 340.707 298.893 341.401 299.361 342.213C299.829 343.024 300.062 344.027 300.06 345.222ZM314.123 331.771C313.077 331.77 312.149 331.96 311.338 332.343C310.527 332.726 309.832 333.279 309.255 334.004C308.7 334.728 308.272 335.602 307.971 336.626C307.692 337.649 307.552 338.801 307.55 340.081C307.547 341.809 307.78 343.292 308.247 344.53C308.715 345.747 309.428 346.687 310.387 347.35C311.367 348.012 312.593 348.345 314.065 348.347C315.047 348.349 315.985 348.254 316.882 348.064C317.799 347.852 318.76 347.576 319.763 347.236L319.758 350.724C318.818 351.106 317.869 351.382 316.908 351.552C315.969 351.721 314.881 351.804 313.644 351.803C311.297 351.799 309.357 351.316 307.822 350.354C306.288 349.37 305.148 348.003 304.405 346.252C303.661 344.48 303.29 342.411 303.294 340.043C303.297 338.315 303.534 336.736 304.005 335.308C304.498 333.879 305.193 332.643 306.091 331.599C307.01 330.555 308.142 329.746 309.487 329.172C310.832 328.598 312.379 328.313 314.128 328.315C315.28 328.317 316.411 328.457 317.519 328.736C318.65 328.994 319.705 329.358 320.686 329.829L319.273 333.187C318.463 332.823 317.62 332.502 316.746 332.223C315.893 331.923 315.019 331.773 314.123 331.771ZM337.669 351.519L324.677 351.5L324.712 328.652L337.704 328.672L337.699 332.096L328.803 332.082L328.794 337.906L337.114 337.919L337.109 341.343L328.789 341.33L328.778 348.05L337.674 348.063L337.669 351.519ZM361.945 351.557L356.857 351.549L346.068 333.612L345.94 333.612C345.961 334.082 345.981 334.583 346.002 335.116C346.044 335.628 346.075 336.162 346.095 336.716C346.116 337.25 346.136 337.794 346.157 338.349C346.177 338.903 346.198 339.458 346.218 340.013L346.201 351.533L342.521 351.527L342.556 328.679L347.612 328.687L358.368 346.495L358.464 346.495C358.444 346.069 358.423 345.61 358.403 345.119C358.382 344.607 358.361 344.085 358.341 343.551C358.342 343.018 358.332 342.474 358.311 341.919C358.291 341.365 358.271 340.831 358.25 340.319L358.268 328.703L361.98 328.709L361.945 351.557ZM376.088 351.579L371.992 351.572L372.021 332.18L365.462 332.17L365.467 328.714L382.683 328.741L382.677 332.197L376.117 332.187L376.088 351.579ZM414.892 340.182C414.889 341.953 414.663 343.563 414.212 345.013C413.783 346.442 413.12 347.678 412.223 348.722C411.346 349.766 410.225 350.564 408.859 351.117C407.514 351.67 405.935 351.945 404.122 351.942C402.287 351.939 400.687 351.659 399.323 351.102C397.98 350.524 396.872 349.723 395.999 348.697C395.126 347.651 394.466 346.402 394.02 344.95C393.596 343.499 393.385 341.888 393.388 340.117C393.391 337.749 393.779 335.691 394.549 333.943C395.341 332.195 396.527 330.842 398.108 329.884C399.709 328.906 401.736 328.418 404.19 328.422C406.6 328.426 408.594 328.919 410.172 329.903C411.749 330.865 412.931 332.233 413.717 334.004C414.504 335.755 414.895 337.814 414.892 340.182ZM397.708 340.156C397.705 341.884 397.927 343.367 398.373 344.605C398.84 345.843 399.543 346.793 400.481 347.456C401.44 348.119 402.655 348.451 404.127 348.454C405.642 348.456 406.869 348.127 407.809 347.467C408.748 346.808 409.443 345.859 409.893 344.623C410.343 343.386 410.569 341.904 410.572 340.176C410.576 337.594 410.077 335.567 409.077 334.093C408.077 332.62 406.446 331.881 404.184 331.878C402.691 331.876 401.464 332.204 400.503 332.864C399.563 333.524 398.858 334.472 398.387 335.709C397.937 336.946 397.71 338.428 397.708 340.156ZM426.27 328.808C428.276 328.811 429.929 329.059 431.229 329.551C432.53 330.044 433.499 330.792 434.138 331.796C434.776 332.778 435.094 334.027 435.092 335.541C435.09 336.651 434.876 337.6 434.448 338.388C434.041 339.177 433.507 339.838 432.845 340.37C432.183 340.881 431.467 341.296 430.699 341.615L437.243 351.673L432.635 351.666L427.177 342.633L423.849 342.628L423.835 351.652L419.739 351.646L419.775 328.798L426.27 328.808ZM426.009 332.231L423.865 332.228L423.854 339.268L426.126 339.272C427.257 339.273 428.175 339.136 428.879 338.86C429.583 338.584 430.096 338.179 430.417 337.646C430.759 337.113 430.931 336.452 430.932 335.663C430.933 334.831 430.753 334.169 430.391 333.678C430.029 333.166 429.486 332.802 428.761 332.588C428.057 332.352 427.14 332.233 426.009 332.231ZM448.171 351.689L438.571 351.675L438.574 349.339L441.328 348.319L441.353 332.223L438.602 331.163L438.606 328.827L448.206 328.842L448.202 331.178L445.449 332.229L445.424 348.325L448.174 349.353L448.171 351.689ZM461.41 339.166L470.05 339.179L470.032 350.795C468.815 351.199 467.567 351.506 466.287 351.717C465.006 351.929 463.555 352.033 461.934 352.031C459.63 352.027 457.679 351.565 456.08 350.646C454.482 349.726 453.268 348.391 452.438 346.64C451.609 344.889 451.196 342.755 451.2 340.238C451.204 337.849 451.676 335.78 452.618 334.032C453.559 332.284 454.905 330.932 456.656 329.975C458.428 329.017 460.584 328.541 463.122 328.544C464.36 328.546 465.554 328.676 466.706 328.934C467.879 329.17 468.945 329.503 469.904 329.931L468.491 333.289C467.766 332.925 466.924 332.625 465.964 332.389C465.026 332.131 464.045 332.002 463.021 332C461.464 331.998 460.119 332.337 458.987 333.018C457.856 333.699 456.979 334.668 456.359 335.926C455.76 337.162 455.459 338.623 455.456 340.309C455.454 341.93 455.686 343.37 456.153 344.63C456.621 345.868 457.366 346.84 458.389 347.545C459.412 348.229 460.745 348.573 462.387 348.575C462.942 348.576 463.422 348.556 463.827 348.514C464.254 348.472 464.638 348.419 464.98 348.355C465.342 348.292 465.684 348.228 466.004 348.165L466.012 342.661L461.404 342.654L461.41 339.166ZM483.233 351.743L473.633 351.729L473.637 349.393L476.39 348.373L476.415 332.277L473.665 331.217L473.668 328.881L483.268 328.895L483.265 331.231L480.511 332.283L480.486 348.379L483.237 349.407L483.233 351.743ZM506.757 351.78L501.669 351.772L490.881 333.835L490.753 333.835C490.773 334.304 490.794 334.806 490.814 335.339C490.856 335.851 490.887 336.385 490.908 336.939C490.928 337.473 490.949 338.017 490.969 338.571C490.99 339.126 491.01 339.681 491.031 340.235L491.013 351.755L487.333 351.75L487.368 328.902L492.424 328.91L503.181 346.718L503.277 346.718C503.256 346.292 503.235 345.833 503.215 345.342C503.194 344.83 503.174 344.307 503.153 343.774C503.154 343.241 503.144 342.697 503.124 342.142C503.103 341.587 503.083 341.054 503.062 340.542L503.08 328.926L506.792 328.932L506.757 351.78ZM526.82 351.81L524.749 345.759L516.141 345.746L514.084 351.791L509.732 351.784L518.151 328.853L522.823 328.86L531.172 351.817L526.82 351.81ZM521.724 336.347C521.639 336.048 521.512 335.642 521.342 335.13C521.172 334.618 521.002 334.095 520.832 333.561C520.684 333.006 520.567 332.548 520.482 332.185C520.375 332.611 520.235 333.102 520.064 333.656C519.914 334.211 519.764 334.733 519.613 335.223C519.485 335.714 519.377 336.087 519.292 336.343L517.267 342.228L523.699 342.238L521.724 336.347ZM534.177 351.822L534.212 328.974L538.308 328.98L538.278 348.372L547.814 348.387L547.809 351.843L534.177 351.822ZM566.614 329.024C568.619 329.027 570.272 329.275 571.573 329.767C572.874 330.26 573.843 331.008 574.481 332.012C575.12 332.994 575.438 334.243 575.436 335.757C575.434 336.867 575.219 337.816 574.791 338.604C574.385 339.393 573.85 340.054 573.188 340.586C572.526 341.097 571.811 341.512 571.042 341.831L577.587 351.889L572.979 351.882L567.521 342.849L564.193 342.844L564.179 351.868L560.083 351.862L560.118 329.014L566.614 329.024ZM566.353 332.447L564.209 332.444L564.198 339.484L566.47 339.487C567.601 339.489 568.518 339.352 569.223 339.076C569.927 338.799 570.44 338.395 570.76 337.862C571.103 337.329 571.274 336.668 571.276 335.879C571.277 335.047 571.097 334.385 570.735 333.894C570.373 333.381 569.829 333.018 569.104 332.804C568.401 332.568 567.483 332.449 566.353 332.447ZM601.204 340.469C601.201 342.24 600.975 343.85 600.525 345.3C600.096 346.729 599.432 347.965 598.535 349.009C597.659 350.053 596.537 350.851 595.171 351.404C593.826 351.956 592.247 352.231 590.434 352.228C588.599 352.226 587 351.946 585.635 351.389C584.292 350.811 583.184 350.009 582.311 348.984C581.438 347.937 580.778 346.688 580.333 345.237C579.908 343.785 579.697 342.174 579.7 340.404C579.704 338.036 580.091 335.978 580.862 334.23C581.654 332.481 582.84 331.129 584.42 330.171C586.021 329.192 588.049 328.705 590.502 328.708C592.913 328.712 594.907 329.206 596.484 330.19C598.061 331.152 599.243 332.519 600.03 334.291C600.816 336.042 601.208 338.101 601.204 340.469ZM584.02 340.442C584.017 342.17 584.239 343.653 584.685 344.892C585.153 346.13 585.855 347.08 586.793 347.743C587.752 348.406 588.967 348.738 590.439 348.74C591.954 348.743 593.181 348.414 594.121 347.754C595.06 347.094 595.755 346.146 596.205 344.909C596.655 343.673 596.881 342.19 596.884 340.462C596.888 337.881 596.39 335.854 595.389 334.38C594.389 332.906 592.758 332.168 590.497 332.164C589.003 332.162 587.776 332.491 586.815 333.151C585.876 333.811 585.17 334.759 584.699 335.996C584.249 337.232 584.023 338.714 584.02 340.442ZM624.176 343.896C624.174 345.475 623.83 346.904 623.145 348.183C622.482 349.44 621.467 350.441 620.101 351.186C618.734 351.909 617.006 352.269 614.915 352.266C611.95 352.261 609.7 351.49 608.167 349.952C606.633 348.392 605.868 346.343 605.872 343.804L605.895 329.084L609.991 329.09L609.969 343.394C609.966 345.25 610.39 346.616 611.242 347.492C612.094 348.347 613.363 348.776 615.048 348.778C616.243 348.78 617.203 348.579 617.929 348.175C618.677 347.77 619.222 347.163 619.564 346.353C619.928 345.522 620.111 344.53 620.113 343.378L620.135 329.106L624.199 329.112L624.176 343.896ZM638.15 351.982L634.054 351.975L634.084 332.583L627.524 332.573L627.529 329.117L644.745 329.144L644.74 332.6L638.18 332.59L638.15 351.982ZM661.2 352.017L648.208 351.997L648.243 329.149L661.235 329.169L661.23 332.593L652.334 332.58L652.325 338.404L660.645 338.416L660.639 341.84L652.319 341.828L652.309 348.548L661.205 348.561L661.2 352.017Z" fill="black"/>
<path d="M326 20.0001L453.306 240.5H198.694L326 20.0001Z" fill="#F97316"/>
<line x1="97" y1="159" x2="556" y2="159" stroke="black" stroke-width="16"/>
</svg>
