<svg width="1006" height="202" viewBox="0 0 1006 202" fill="none" xmlns="http://www.w3.org/2000/svg">
<circle cx="57.179" cy="57.179" r="56.679" transform="matrix(-1 0 0 1 260.216 43.6419)" fill="black" stroke="black"/>
<path d="M313.432 130.448C229.619 14.7717 180.91 7.64922 90 130.448" stroke="black" stroke-width="16"/>
<path d="M203.226 45.5291L155.178 128.75H251.273L203.226 45.5291Z" fill="#F97316"/>
<line y1="-8" x2="173.235" y2="-8" transform="matrix(-1 0 0 1 289.655 101.01)" stroke="black" stroke-width="16"/>
<path d="M43.992 92.78L65.001 51.326H87.984L54.567 112.802V152H33.417V113.507L0 51.326H23.124L43.992 92.78ZM374.499 152L350.247 73.04H349.683C349.777 74.92 349.918 77.74 350.106 81.5C350.294 85.26 350.482 89.302 350.67 93.626C350.858 97.856 350.952 101.71 350.952 105.188V152H331.917V51.326H360.963L384.792 128.312H385.215L410.454 51.326H439.5V152H419.619V104.342C419.619 101.146 419.666 97.48 419.76 93.344C419.948 89.208 420.089 85.307 420.183 81.641C420.371 77.881 420.512 75.061 420.606 73.181H420.042L394.098 152H374.499ZM571.668 152L564.336 128.03H527.676L520.344 152H497.361L532.893 50.903H558.978L594.651 152H571.668ZM551.928 86.717C551.458 85.119 550.847 83.098 550.095 80.654C549.343 78.21 548.591 75.719 547.839 73.181C547.087 70.643 546.476 68.434 546.006 66.554C545.536 68.434 544.878 70.784 544.032 73.604C543.28 76.33 542.528 78.962 541.776 81.5C541.118 83.944 540.601 85.683 540.225 86.717L533.034 110.123H559.26L551.928 86.717ZM741.136 101.522C741.136 109.324 740.149 116.421 738.175 122.813C736.295 129.111 733.381 134.563 729.433 139.169C725.579 143.775 720.597 147.3 714.487 149.744C708.471 152.188 701.374 153.41 693.196 153.41C685.018 153.41 677.874 152.188 671.764 149.744C665.748 147.206 660.766 143.681 656.818 139.169C652.964 134.563 650.05 129.064 648.076 122.672C646.196 116.28 645.256 109.183 645.256 101.381C645.256 90.947 646.948 81.876 650.332 74.168C653.81 66.46 659.074 60.491 666.124 56.261C673.268 51.937 682.339 49.775 693.337 49.775C704.241 49.775 713.218 51.937 720.268 56.261C727.318 60.491 732.535 66.507 735.919 74.309C739.397 82.017 741.136 91.088 741.136 101.522ZM667.675 101.522C667.675 108.572 668.568 114.635 670.354 119.711C672.14 124.787 674.913 128.688 678.673 131.414C682.433 134.14 687.274 135.503 693.196 135.503C699.306 135.503 704.194 134.14 707.86 131.414C711.62 128.688 714.346 124.787 716.038 119.711C717.824 114.635 718.717 108.572 718.717 101.522C718.717 90.9 716.743 82.581 712.795 76.565C708.847 70.549 702.361 67.541 693.337 67.541C687.321 67.541 682.433 68.904 678.673 71.63C674.913 74.356 672.14 78.257 670.354 83.333C668.568 88.409 667.675 94.472 667.675 101.522ZM836.437 51.326C845.555 51.326 853.075 52.454 858.997 54.71C864.919 56.872 869.337 60.209 872.251 64.721C875.165 69.139 876.622 74.732 876.622 81.5C876.622 86.106 875.729 90.148 873.943 93.626C872.251 97.01 869.948 99.924 867.034 102.368C864.214 104.718 861.159 106.645 857.869 108.149L887.479 152H863.791L839.821 113.366H828.4V152H807.109V51.326H836.437ZM834.886 68.81H828.4V96.023H835.309C840.009 96.023 843.816 95.506 846.73 94.472C849.644 93.438 851.759 91.887 853.075 89.819C854.391 87.657 855.049 85.072 855.049 82.064C855.049 78.868 854.297 76.33 852.793 74.45C851.383 72.476 849.174 71.066 846.166 70.22C843.252 69.28 839.492 68.81 834.886 68.81ZM982.958 152H937.133V139.874L949.4 134.234V69.092L937.133 63.452V51.326H982.958V63.452L970.691 69.092V134.234L982.958 139.874V152Z" fill="black"/>
<path d="M350.665 179.247L355.897 169.175L360.313 169.182L352.707 183.122L352.694 192.018L348.598 192.012L348.611 183.276L341.049 169.152L345.497 169.159L350.665 179.247ZM376.232 192.054L363.24 192.034L363.275 169.186L376.267 169.206L376.262 172.63L367.366 172.616L367.357 178.44L375.677 178.453L375.671 181.877L367.351 181.864L367.341 188.584L376.237 188.598L376.232 192.054ZM394.373 185.842C394.371 187.186 394.039 188.348 393.376 189.329C392.713 190.309 391.752 191.065 390.492 191.596C389.254 192.128 387.771 192.392 386.043 192.389C385.211 192.388 384.411 192.333 383.643 192.226C382.897 192.139 382.182 191.999 381.5 191.806C380.839 191.613 380.221 191.378 379.645 191.099L379.651 187.259C380.61 187.688 381.666 188.084 382.817 188.448C383.969 188.791 385.142 188.964 386.336 188.966C387.254 188.967 388 188.851 388.577 188.617C389.175 188.362 389.612 188.021 389.89 187.595C390.168 187.148 390.308 186.636 390.309 186.06C390.31 185.42 390.129 184.876 389.767 184.427C389.405 183.978 388.873 183.562 388.169 183.176C387.466 182.791 386.592 182.385 385.547 181.956C384.844 181.657 384.151 181.325 383.469 180.961C382.808 180.576 382.211 180.117 381.679 179.583C381.146 179.048 380.72 178.418 380.402 177.693C380.083 176.967 379.924 176.113 379.926 175.132C379.928 173.83 380.239 172.711 380.859 171.773C381.5 170.836 382.387 170.122 383.518 169.633C384.671 169.144 386.004 168.901 387.519 168.903C388.735 168.905 389.876 169.035 390.943 169.293C392.009 169.55 393.064 169.915 394.109 170.386L392.792 173.68C391.854 173.273 390.948 172.951 390.073 172.715C389.199 172.479 388.303 172.361 387.386 172.359C386.66 172.358 386.042 172.475 385.529 172.708C385.017 172.921 384.632 173.23 384.376 173.635C384.119 174.04 383.991 174.509 383.99 175.042C383.989 175.661 384.148 176.184 384.467 176.611C384.787 177.038 385.277 177.444 385.937 177.829C386.62 178.193 387.494 178.61 388.559 179.081C389.796 179.616 390.84 180.173 391.693 180.75C392.545 181.327 393.206 182.022 393.674 182.833C394.142 183.644 394.375 184.647 394.373 185.842ZM397.72 190.039C397.722 189.143 397.957 188.514 398.427 188.152C398.897 187.769 399.473 187.578 400.156 187.579C400.839 187.58 401.415 187.762 401.883 188.126C402.373 188.489 402.618 189.129 402.616 190.047C402.615 190.921 402.369 191.55 401.877 191.934C401.408 192.317 400.831 192.508 400.149 192.507C399.466 192.506 398.89 192.313 398.421 191.928C397.953 191.544 397.719 190.914 397.72 190.039ZM421.727 192.124L419.656 186.073L411.048 186.06L408.991 192.105L404.639 192.098L413.058 169.167L417.73 169.174L426.079 192.131L421.727 192.124ZM416.63 176.66C416.546 176.361 416.418 175.956 416.248 175.444C416.078 174.931 415.909 174.408 415.739 173.875C415.59 173.32 415.474 172.861 415.389 172.498C415.282 172.925 415.142 173.415 414.971 173.97C414.82 174.524 414.67 175.047 414.52 175.537C414.391 176.027 414.284 176.401 414.198 176.657L412.173 182.541L418.605 182.551L416.63 176.66ZM447.22 192.163L440.977 173.434L440.849 173.434C440.869 173.86 440.9 174.468 440.942 175.258C440.983 176.026 441.014 176.868 441.034 177.786C441.075 178.682 441.095 179.525 441.094 180.314L441.076 192.154L437.396 192.148L437.431 169.3L443.127 169.309L449.115 187.27L449.243 187.27L455.543 169.328L461.239 169.337L461.204 192.185L457.3 192.179L457.318 180.147C457.32 179.422 457.331 178.632 457.354 177.779C457.398 176.904 457.431 176.083 457.454 175.315C457.498 174.526 457.531 173.918 457.553 173.491L457.425 173.491L450.868 192.169L447.22 192.163ZM474.859 192.206L465.259 192.191L465.262 189.855L468.016 188.835L468.041 172.739L465.29 171.679L465.294 169.343L474.894 169.358L474.89 171.694L472.137 172.746L472.112 188.842L474.862 189.87L474.859 192.206ZM492.248 185.993C492.246 187.337 491.913 188.499 491.251 189.479C490.588 190.459 489.627 191.215 488.367 191.747C487.129 192.278 485.646 192.542 483.918 192.54C483.086 192.539 482.286 192.484 481.518 192.376C480.772 192.29 480.057 192.15 479.375 191.957C478.714 191.764 478.095 191.528 477.52 191.25L477.526 187.41C478.485 187.838 479.54 188.234 480.692 188.599C481.843 188.942 483.016 189.114 484.211 189.116C485.128 189.118 485.875 189.001 486.452 188.768C487.049 188.513 487.487 188.172 487.765 187.746C488.043 187.298 488.183 186.786 488.184 186.21C488.185 185.57 488.004 185.026 487.642 184.578C487.28 184.129 486.747 183.712 486.044 183.327C485.341 182.942 484.467 182.535 483.422 182.107C482.718 181.807 482.026 181.476 481.343 181.112C480.683 180.727 480.086 180.267 479.554 179.733C479.021 179.199 478.595 178.569 478.276 177.843C477.958 177.117 477.799 176.264 477.8 175.282C477.802 173.981 478.113 172.862 478.734 171.924C479.375 170.986 480.261 170.273 481.393 169.784C482.546 169.295 483.879 169.052 485.394 169.054C486.61 169.056 487.751 169.186 488.817 169.443C489.884 169.701 490.939 170.065 491.984 170.536L490.667 173.83C489.729 173.423 488.822 173.102 487.948 172.866C487.074 172.63 486.178 172.511 485.261 172.51C484.535 172.509 483.917 172.625 483.404 172.859C482.892 173.072 482.507 173.38 482.251 173.785C481.994 174.19 481.865 174.659 481.865 175.193C481.864 175.811 482.023 176.334 482.342 176.761C482.661 177.189 483.152 177.595 483.812 177.98C484.494 178.343 485.368 178.761 486.434 179.232C487.671 179.767 488.715 180.323 489.568 180.9C490.42 181.478 491.081 182.172 491.549 182.984C492.017 183.795 492.25 184.798 492.248 185.993ZM509.842 186.02C509.84 187.364 509.507 188.526 508.844 189.506C508.181 190.486 507.22 191.242 505.961 191.774C504.723 192.305 503.24 192.57 501.512 192.567C500.68 192.566 499.88 192.511 499.112 192.403C498.365 192.317 497.651 192.177 496.969 191.984C496.307 191.791 495.689 191.555 495.114 191.277L495.119 187.437C496.079 187.865 497.134 188.261 498.286 188.626C499.437 188.969 500.61 189.141 501.805 189.143C502.722 189.145 503.469 189.029 504.045 188.795C504.643 188.54 505.081 188.199 505.359 187.773C505.637 187.325 505.776 186.813 505.777 186.237C505.778 185.597 505.598 185.053 505.236 184.605C504.874 184.156 504.341 183.739 503.638 183.354C502.934 182.969 502.06 182.562 501.016 182.134C500.312 181.834 499.619 181.503 498.937 181.139C498.276 180.754 497.68 180.294 497.147 179.76C496.615 179.226 496.189 178.596 495.87 177.87C495.551 177.144 495.393 176.291 495.394 175.309C495.396 174.008 495.707 172.889 496.327 171.951C496.969 171.013 497.855 170.3 498.987 169.811C500.139 169.322 501.473 169.079 502.988 169.081C504.204 169.083 505.345 169.213 506.411 169.47C507.477 169.728 508.533 170.092 509.577 170.563L508.26 173.857C507.322 173.45 506.416 173.129 505.542 172.893C504.668 172.657 503.772 172.538 502.854 172.537C502.129 172.536 501.51 172.652 500.998 172.886C500.486 173.099 500.101 173.407 499.844 173.812C499.588 174.217 499.459 174.686 499.458 175.22C499.457 175.838 499.617 176.361 499.936 176.788C500.255 177.216 500.745 177.622 501.406 178.007C502.088 178.37 502.962 178.788 504.028 179.259C505.265 179.794 506.309 180.35 507.162 180.928C508.014 181.505 508.674 182.199 509.142 183.011C509.61 183.822 509.844 184.825 509.842 186.02ZM534.579 180.842C534.577 182.612 534.35 184.223 533.9 185.673C533.471 187.101 532.808 188.338 531.91 189.382C531.034 190.426 529.913 191.224 528.547 191.776C527.202 192.329 525.623 192.604 523.809 192.601C521.975 192.598 520.375 192.319 519.011 191.762C517.668 191.184 516.559 190.382 515.686 189.357C514.813 188.31 514.154 187.061 513.708 185.61C513.284 184.158 513.073 182.547 513.076 180.777C513.079 178.409 513.466 176.351 514.237 174.602C515.029 172.854 516.215 171.501 517.795 170.544C519.397 169.565 521.424 169.077 523.878 169.081C526.288 169.085 528.282 169.579 529.859 170.562C531.436 171.525 532.618 172.892 533.405 174.664C534.192 176.414 534.583 178.474 534.579 180.842ZM517.395 180.815C517.393 182.543 517.615 184.026 518.061 185.264C518.528 186.502 519.231 187.453 520.168 188.116C521.127 188.778 522.343 189.111 523.815 189.113C525.329 189.116 526.557 188.787 527.496 188.127C528.436 187.467 529.131 186.519 529.581 185.282C530.031 184.045 530.257 182.563 530.259 180.835C530.263 178.254 529.765 176.226 528.765 174.753C527.764 173.279 526.134 172.541 523.872 172.537C522.379 172.535 521.152 172.864 520.191 173.524C519.251 174.183 518.546 175.132 518.074 176.368C517.624 177.605 517.398 179.087 517.395 180.815ZM558.851 192.335L553.763 192.327L542.975 174.391L542.847 174.39C542.867 174.86 542.888 175.361 542.908 175.895C542.95 176.407 542.981 176.94 543.002 177.495C543.022 178.028 543.043 178.572 543.063 179.127C543.084 179.681 543.104 180.236 543.125 180.791L543.107 192.311L539.427 192.305L539.462 169.457L544.518 169.465L555.275 187.274L555.371 187.274C555.35 186.847 555.33 186.388 555.309 185.898C555.288 185.386 555.268 184.863 555.247 184.33C555.248 183.796 555.238 183.252 555.218 182.697C555.197 182.143 555.177 181.609 555.156 181.097L555.174 169.481L558.886 169.487L558.851 192.335ZM576.789 175.019L576.763 192.363L572.731 192.356L572.757 175.012L576.789 175.019ZM574.783 168.328C575.381 168.328 575.903 168.489 576.351 168.81C576.798 169.109 577.021 169.654 577.02 170.443C577.019 171.211 576.794 171.765 576.346 172.106C575.897 172.425 575.374 172.584 574.777 172.584C574.158 172.583 573.625 172.422 573.178 172.101C572.752 171.759 572.539 171.204 572.54 170.436C572.541 169.647 572.756 169.103 573.183 168.805C573.631 168.486 574.165 168.327 574.783 168.328ZM593.734 187.365C593.732 188.517 593.453 189.498 592.897 190.307C592.341 191.096 591.519 191.692 590.43 192.096C589.363 192.499 588.051 192.7 586.494 192.698C585.278 192.696 584.232 192.609 583.358 192.437C582.484 192.265 581.652 191.997 580.863 191.633L580.868 188.209C581.721 188.616 582.67 188.958 583.715 189.237C584.76 189.516 585.73 189.656 586.626 189.658C587.736 189.66 588.536 189.49 589.027 189.15C589.518 188.809 589.764 188.351 589.765 187.775C589.766 187.433 589.67 187.124 589.479 186.846C589.287 186.569 588.914 186.28 588.36 185.98C587.806 185.66 586.964 185.264 585.834 184.793C584.725 184.343 583.798 183.893 583.052 183.444C582.327 182.995 581.773 182.461 581.39 181.842C581.029 181.201 580.848 180.401 580.85 179.441C580.852 177.884 581.473 176.711 582.711 175.924C583.95 175.115 585.583 174.712 587.609 174.715C588.676 174.717 589.678 174.825 590.617 175.04C591.576 175.233 592.536 175.555 593.495 176.004L592.211 178.978C591.678 178.743 591.145 178.539 590.612 178.368C590.1 178.175 589.577 178.025 589.044 177.918C588.532 177.81 588.01 177.756 587.476 177.755C586.602 177.754 585.94 177.891 585.492 178.168C585.043 178.423 584.819 178.786 584.818 179.255C584.818 179.618 584.924 179.938 585.137 180.216C585.371 180.472 585.765 180.739 586.319 181.017C586.895 181.274 587.705 181.617 588.75 182.045C589.795 182.452 590.679 182.88 591.404 183.329C592.15 183.757 592.725 184.291 593.129 184.932C593.534 185.572 593.735 186.383 593.734 187.365ZM620.414 192.43L618.343 186.379L609.735 186.365L607.678 192.41L603.326 192.404L611.745 169.472L616.417 169.48L624.766 192.437L620.414 192.43ZM615.318 176.966C615.233 176.667 615.105 176.262 614.936 175.749C614.766 175.237 614.596 174.714 614.426 174.181C614.278 173.626 614.161 173.167 614.076 172.804C613.969 173.231 613.829 173.721 613.658 174.275C613.508 174.83 613.358 175.352 613.207 175.843C613.079 176.333 612.971 176.706 612.886 176.962L610.861 182.847L617.293 182.857L615.318 176.966ZM641.06 186.222C641.058 187.566 640.726 188.728 640.063 189.708C639.4 190.688 638.439 191.444 637.179 191.976C635.941 192.507 634.458 192.771 632.73 192.769C631.898 192.767 631.098 192.713 630.33 192.605C629.584 192.519 628.869 192.379 628.187 192.186C627.526 191.993 626.908 191.757 626.332 191.479L626.338 187.639C627.297 188.067 628.353 188.463 629.504 188.828C630.656 189.171 631.829 189.343 633.023 189.345C633.941 189.347 634.688 189.23 635.264 188.997C635.862 188.742 636.3 188.401 636.578 187.975C636.856 187.527 636.995 187.015 636.996 186.439C636.997 185.799 636.816 185.255 636.454 184.806C636.092 184.358 635.56 183.941 634.856 183.556C634.153 183.171 633.279 182.764 632.234 182.336C631.531 182.036 630.838 181.704 630.156 181.341C629.495 180.956 628.898 180.496 628.366 179.962C627.833 179.428 627.408 178.798 627.089 178.072C626.77 177.346 626.611 176.493 626.613 175.511C626.615 174.21 626.926 173.09 627.546 172.153C628.187 171.215 629.074 170.502 630.205 170.013C631.358 169.524 632.692 169.281 634.206 169.283C635.422 169.285 636.563 169.415 637.63 169.672C638.696 169.93 639.751 170.294 640.796 170.765L639.479 174.059C638.541 173.652 637.635 173.331 636.76 173.095C635.886 172.859 634.99 172.74 634.073 172.739C633.348 172.738 632.729 172.854 632.216 173.088C631.704 173.3 631.32 173.609 631.063 174.014C630.806 174.419 630.678 174.888 630.677 175.422C630.676 176.04 630.835 176.563 631.154 176.99C631.474 177.417 631.964 177.824 632.625 178.209C633.307 178.572 634.181 178.99 635.247 179.461C636.483 179.996 637.528 180.552 638.38 181.129C639.233 181.707 639.893 182.401 640.361 183.212C640.829 184.024 641.062 185.027 641.06 186.222ZM655.123 172.771C654.077 172.77 653.149 172.96 652.338 173.343C651.527 173.726 650.832 174.279 650.255 175.004C649.7 175.728 649.272 176.602 648.971 177.626C648.692 178.649 648.552 179.801 648.55 181.081C648.547 182.809 648.78 184.292 649.247 185.53C649.715 186.747 650.428 187.687 651.387 188.349C652.367 189.012 653.593 189.345 655.065 189.347C656.047 189.349 656.985 189.254 657.882 189.063C658.799 188.852 659.76 188.576 660.763 188.236L660.758 191.724C659.818 192.106 658.869 192.382 657.908 192.551C656.969 192.721 655.881 192.804 654.644 192.802C652.297 192.799 650.357 192.316 648.822 191.354C647.288 190.37 646.148 189.003 645.404 187.252C644.661 185.48 644.29 183.411 644.294 181.043C644.297 179.315 644.534 177.736 645.005 176.308C645.498 174.879 646.193 173.643 647.091 172.599C648.01 171.555 649.142 170.746 650.487 170.172C651.832 169.598 653.379 169.312 655.128 169.315C656.28 169.317 657.411 169.457 658.519 169.736C659.65 169.994 660.705 170.358 661.686 170.829L660.273 174.187C659.462 173.823 658.62 173.502 657.746 173.223C656.893 172.923 656.019 172.773 655.123 172.771ZM678.669 192.519L665.677 192.499L665.712 169.651L678.704 169.671L678.699 173.095L669.803 173.082L669.794 178.906L678.114 178.919L678.109 182.343L669.789 182.33L669.778 189.05L678.674 189.063L678.669 192.519ZM702.945 192.557L697.857 192.549L687.068 174.612L686.94 174.612C686.961 175.081 686.981 175.583 687.002 176.116C687.044 176.628 687.075 177.162 687.095 177.716C687.116 178.25 687.136 178.794 687.157 179.348C687.177 179.903 687.198 180.458 687.218 181.013L687.201 192.533L683.521 192.527L683.556 169.679L688.612 169.687L699.368 187.495L699.464 187.495C699.444 187.069 699.423 186.61 699.403 186.119C699.382 185.607 699.361 185.085 699.341 184.551C699.342 184.018 699.332 183.474 699.311 182.919C699.291 182.364 699.27 181.831 699.25 181.319L699.268 169.703L702.98 169.709L702.945 192.557ZM717.088 192.579L712.992 192.572L713.021 173.18L706.461 173.17L706.467 169.714L723.683 169.741L723.677 173.197L717.117 173.187L717.088 192.579ZM755.892 181.182C755.889 182.953 755.662 184.563 755.212 186.013C754.783 187.442 754.12 188.678 753.223 189.722C752.346 190.766 751.225 191.564 749.859 192.117C748.514 192.67 746.935 192.944 745.122 192.942C743.287 192.939 741.687 192.659 740.323 192.102C738.98 191.524 737.872 190.723 736.999 189.697C736.125 188.65 735.466 187.401 735.02 185.95C734.596 184.499 734.385 182.888 734.388 181.117C734.391 178.749 734.779 176.691 735.549 174.943C736.341 173.195 737.527 171.842 739.107 170.884C740.709 169.906 742.736 169.418 745.19 169.422C747.6 169.425 749.594 169.919 751.171 170.903C752.749 171.865 753.931 173.233 754.717 175.004C755.504 176.755 755.895 178.814 755.892 181.182ZM738.708 181.156C738.705 182.884 738.927 184.367 739.373 185.605C739.84 186.843 740.543 187.793 741.48 188.456C742.439 189.119 743.655 189.451 745.127 189.454C746.642 189.456 747.869 189.127 748.808 188.467C749.748 187.807 750.443 186.859 750.893 185.623C751.343 184.386 751.569 182.904 751.572 181.176C751.576 178.594 751.077 176.567 750.077 175.093C749.077 173.62 747.446 172.881 745.184 172.878C743.691 172.875 742.464 173.204 741.503 173.864C740.563 174.524 739.858 175.472 739.387 176.709C738.937 177.945 738.71 179.428 738.708 181.156ZM767.27 169.808C769.276 169.811 770.929 170.059 772.229 170.551C773.53 171.044 774.499 171.792 775.138 172.796C775.776 173.778 776.094 175.027 776.092 176.541C776.09 177.651 775.876 178.6 775.448 179.388C775.041 180.177 774.507 180.838 773.845 181.37C773.183 181.881 772.467 182.296 771.699 182.615L778.243 192.673L773.635 192.666L768.177 183.633L764.849 183.628L764.835 192.652L760.739 192.646L760.774 169.798L767.27 169.808ZM767.009 173.231L764.865 173.228L764.854 180.268L767.126 180.272C768.257 180.273 769.175 180.136 769.879 179.86C770.583 179.583 771.096 179.179 771.417 178.646C771.759 178.113 771.931 177.452 771.932 176.663C771.933 175.831 771.753 175.169 771.391 174.678C771.029 174.166 770.486 173.802 769.761 173.588C769.057 173.352 768.14 173.233 767.009 173.231ZM789.171 192.689L779.571 192.675L779.574 190.339L782.328 189.319L782.353 173.223L779.602 172.163L779.606 169.827L789.206 169.841L789.202 172.177L786.449 173.229L786.424 189.325L789.174 190.353L789.171 192.689ZM802.41 180.166L811.05 180.179L811.032 191.795C809.815 192.199 808.567 192.506 807.286 192.717C806.006 192.929 804.555 193.033 802.934 193.031C800.63 193.027 798.679 192.565 797.08 191.646C795.482 190.726 794.268 189.391 793.438 187.64C792.609 185.889 792.196 183.755 792.2 181.238C792.204 178.849 792.676 176.78 793.618 175.032C794.559 173.284 795.905 171.932 797.656 170.974C799.428 170.017 801.583 169.541 804.122 169.544C805.359 169.546 806.554 169.676 807.706 169.934C808.879 170.17 809.945 170.503 810.904 170.931L809.491 174.289C808.766 173.925 807.924 173.625 806.964 173.389C806.026 173.131 805.045 173.002 804.021 173C802.463 172.998 801.119 173.337 799.987 174.018C798.856 174.699 797.979 175.668 797.359 176.926C796.76 178.162 796.459 179.623 796.456 181.309C796.454 182.93 796.686 184.37 797.153 185.63C797.621 186.868 798.366 187.84 799.389 188.545C800.412 189.229 801.745 189.573 803.387 189.575C803.942 189.576 804.422 189.556 804.827 189.514C805.254 189.472 805.638 189.419 805.98 189.355C806.342 189.292 806.684 189.228 807.004 189.165L807.012 183.661L802.404 183.654L802.41 180.166ZM824.233 192.743L814.633 192.729L814.637 190.393L817.39 189.373L817.415 173.277L814.665 172.217L814.668 169.881L824.268 169.895L824.265 172.231L821.511 173.283L821.486 189.379L824.237 190.407L824.233 192.743ZM847.757 192.78L842.669 192.772L831.881 174.835L831.753 174.835C831.773 175.304 831.794 175.806 831.814 176.339C831.856 176.851 831.887 177.384 831.908 177.939C831.928 178.473 831.949 179.017 831.969 179.571C831.99 180.126 832.01 180.681 832.031 181.235L832.013 192.755L828.333 192.75L828.368 169.902L833.424 169.909L844.181 187.718L844.277 187.718C844.256 187.292 844.235 186.833 844.215 186.342C844.194 185.83 844.174 185.307 844.153 184.774C844.154 184.241 844.144 183.697 844.124 183.142C844.103 182.587 844.083 182.054 844.062 181.542L844.08 169.926L847.792 169.932L847.757 192.78ZM867.82 192.81L865.749 186.759L857.141 186.746L855.084 192.791L850.732 192.784L859.151 169.853L863.823 169.86L872.172 192.817L867.82 192.81ZM862.724 177.347C862.639 177.048 862.511 176.642 862.342 176.13C862.172 175.618 862.002 175.095 861.832 174.561C861.684 174.006 861.567 173.547 861.482 173.185C861.375 173.611 861.235 174.102 861.064 174.656C860.914 175.21 860.764 175.733 860.613 176.223C860.485 176.714 860.377 177.087 860.292 177.343L858.267 183.228L864.699 183.238L862.724 177.347ZM875.177 192.822L875.212 169.974L879.308 169.98L879.278 189.372L888.814 189.387L888.809 192.843L875.177 192.822ZM907.614 170.024C909.619 170.027 911.272 170.275 912.573 170.767C913.873 171.26 914.843 172.008 915.481 173.012C916.12 173.994 916.438 175.243 916.436 176.757C916.434 177.867 916.219 178.816 915.791 179.604C915.385 180.393 914.85 181.053 914.188 181.586C913.526 182.097 912.811 182.512 912.042 182.83L918.587 192.889L913.979 192.881L908.521 183.849L905.193 183.844L905.179 192.868L901.083 192.862L901.118 170.014L907.614 170.024ZM907.353 173.447L905.209 173.444L905.198 180.484L907.47 180.487C908.601 180.489 909.518 180.352 910.223 180.076C910.927 179.799 911.44 179.395 911.76 178.862C912.103 178.329 912.274 177.668 912.275 176.879C912.277 176.047 912.096 175.385 911.735 174.894C911.373 174.381 910.829 174.018 910.104 173.803C909.401 173.568 908.483 173.449 907.353 173.447ZM942.204 181.469C942.201 183.24 941.975 184.85 941.525 186.3C941.096 187.728 940.432 188.965 939.535 190.009C938.659 191.053 937.537 191.851 936.171 192.404C934.826 192.956 933.247 193.231 931.434 193.228C929.599 193.225 928 192.946 926.635 192.389C925.292 191.811 924.184 191.009 923.311 189.984C922.438 188.937 921.778 187.688 921.333 186.237C920.908 184.785 920.697 183.174 920.7 181.404C920.704 179.036 921.091 176.978 921.862 175.23C922.654 173.481 923.84 172.129 925.42 171.171C927.021 170.192 929.049 169.705 931.502 169.708C933.913 169.712 935.907 170.206 937.484 171.19C939.061 172.152 940.243 173.519 941.029 175.291C941.816 177.042 942.208 179.101 942.204 181.469ZM925.02 181.442C925.017 183.17 925.239 184.653 925.685 185.891C926.153 187.13 926.855 188.08 927.793 188.743C928.752 189.406 929.967 189.738 931.439 189.74C932.954 189.743 934.181 189.414 935.121 188.754C936.06 188.094 936.755 187.146 937.205 185.909C937.655 184.673 937.881 183.19 937.884 181.462C937.888 178.881 937.39 176.853 936.389 175.38C935.389 173.906 933.758 173.168 931.497 173.164C930.003 173.162 928.776 173.491 927.815 174.151C926.876 174.811 926.17 175.759 925.699 176.995C925.249 178.232 925.023 179.714 925.02 181.442ZM965.176 184.896C965.174 186.475 964.83 187.904 964.145 189.183C963.482 190.44 962.467 191.441 961.101 192.186C959.734 192.909 958.006 193.269 955.915 193.266C952.95 193.261 950.7 192.49 949.167 190.952C947.633 189.392 946.868 187.343 946.872 184.804L946.895 170.084L950.991 170.09L950.969 184.394C950.966 186.25 951.39 187.616 952.242 188.492C953.094 189.347 954.363 189.776 956.048 189.778C957.243 189.78 958.203 189.579 958.929 189.175C959.677 188.77 960.222 188.163 960.564 187.353C960.928 186.522 961.111 185.53 961.113 184.378L961.135 170.106L965.199 170.112L965.176 184.896ZM979.15 192.982L975.054 192.975L975.084 173.583L968.524 173.573L968.529 170.117L985.745 170.144L985.74 173.6L979.18 173.59L979.15 192.982ZM1002.2 193.017L989.208 192.997L989.243 170.149L1002.23 170.169L1002.23 173.593L993.334 173.58L993.325 179.404L1001.64 179.416L1001.64 182.84L993.319 182.827L993.309 189.547L1002.21 189.561L1002.2 193.017Z" fill="black"/>
</svg>
