<svg width="201" height="167" viewBox="0 0 201 167" fill="none" xmlns="http://www.w3.org/2000/svg">
<path d="M196.796 43.0443C195.66 39.4905 193.421 36.2469 190.302 33.6384C187.183 31.0299 183.294 29.1481 179.024 28.1813C163.354 24.6673 100.5 24.6673 100.5 24.6673C100.5 24.6673 37.6456 24.6673 21.9676 28.1813C17.6998 29.1498 13.8128 31.0323 10.6955 33.6406C7.57821 36.249 5.33983 39.4916 4.20425 43.0443C0 56.1538 0 83.5 0 83.5C0 83.5 0 110.846 4.20425 123.956C5.33978 127.51 7.57917 130.753 10.6982 133.362C13.8171 135.97 17.7062 137.852 21.976 138.819C37.6456 142.333 100.5 142.333 100.5 142.333C100.5 142.333 163.354 142.333 179.032 138.819C183.303 137.853 187.192 135.971 190.311 133.362C193.43 130.754 195.669 127.51 196.804 123.956C201 110.846 201 83.5 201 83.5C201 83.5 201 56.1538 196.796 43.0443ZM79.9394 108.327V58.6727L132.476 83.5L79.9394 108.327Z" fill="white"/>
</svg>
